<mxfile host="app.diagrams.net" modified="2023-05-17T11:11:03.917Z" agent="Mozilla/5.0 (Windows NT 10.0; Win64; x64) AppleWebKit/537.36 (KHTML, like Gecko) Chrome/113.0.0.0 Safari/537.36 Edg/113.0.1774.42" etag="kSIBNwWbdBvQVl88e0iR" version="21.3.2" type="github">
  <diagram name="Page-1" id="jx9JWOi1ShGZBdXcdiNp">
    <mxGraphModel dx="857" dy="1794" grid="1" gridSize="10" guides="1" tooltips="1" connect="1" arrows="1" fold="1" page="1" pageScale="1" pageWidth="827" pageHeight="1169" math="0" shadow="0">
      <root>
        <mxCell id="0" />
        <mxCell id="1" parent="0" />
        <mxCell id="rXP4-r2rK4ObflbEY1pi-23" style="edgeStyle=orthogonalEdgeStyle;rounded=1;orthogonalLoop=1;jettySize=auto;html=1;strokeWidth=1;endArrow=none;endFill=0;opacity=90;fontSize=9;" parent="1" source="rXP4-r2rK4ObflbEY1pi-1" target="rXP4-r2rK4ObflbEY1pi-2" edge="1">
          <mxGeometry relative="1" as="geometry">
            <Array as="points">
              <mxPoint x="459" y="54" />
              <mxPoint x="84" y="54" />
            </Array>
          </mxGeometry>
        </mxCell>
        <mxCell id="rXP4-r2rK4ObflbEY1pi-24" style="edgeStyle=orthogonalEdgeStyle;rounded=1;orthogonalLoop=1;jettySize=auto;html=1;endArrow=none;endFill=0;opacity=90;fontSize=9;" parent="1" source="rXP4-r2rK4ObflbEY1pi-1" target="rXP4-r2rK4ObflbEY1pi-5" edge="1">
          <mxGeometry relative="1" as="geometry">
            <Array as="points">
              <mxPoint x="459" y="54" />
              <mxPoint x="379" y="54" />
            </Array>
          </mxGeometry>
        </mxCell>
        <mxCell id="rXP4-r2rK4ObflbEY1pi-25" style="edgeStyle=orthogonalEdgeStyle;orthogonalLoop=1;jettySize=auto;html=1;rounded=1;endArrow=none;endFill=0;opacity=90;fontSize=9;" parent="1" source="rXP4-r2rK4ObflbEY1pi-1" target="rXP4-r2rK4ObflbEY1pi-6" edge="1">
          <mxGeometry relative="1" as="geometry">
            <mxPoint x="254" y="24" as="sourcePoint" />
            <Array as="points">
              <mxPoint x="599" y="54" />
              <mxPoint x="859" y="54" />
            </Array>
          </mxGeometry>
        </mxCell>
        <mxCell id="rXP4-r2rK4ObflbEY1pi-1" value="Persona" style="text;html=1;align=center;verticalAlign=middle;resizable=0;points=[];autosize=1;strokeColor=none;fillColor=none;rounded=0;shadow=0;opacity=90;fontSize=12;fontStyle=1" parent="1" vertex="1">
          <mxGeometry x="424" y="-1" width="70" height="30" as="geometry" />
        </mxCell>
        <mxCell id="rXP4-r2rK4ObflbEY1pi-26" style="edgeStyle=orthogonalEdgeStyle;rounded=1;orthogonalLoop=1;jettySize=auto;html=1;endArrow=none;endFill=0;opacity=90;fontSize=9;exitX=0.493;exitY=0.957;exitDx=0;exitDy=0;exitPerimeter=0;" parent="1" source="rXP4-r2rK4ObflbEY1pi-2" target="rXP4-r2rK4ObflbEY1pi-7" edge="1">
          <mxGeometry relative="1" as="geometry">
            <Array as="points">
              <mxPoint x="83" y="104" />
              <mxPoint x="64" y="104" />
            </Array>
          </mxGeometry>
        </mxCell>
        <mxCell id="rXP4-r2rK4ObflbEY1pi-27" style="edgeStyle=orthogonalEdgeStyle;rounded=1;orthogonalLoop=1;jettySize=auto;html=1;endArrow=none;endFill=0;opacity=90;fontSize=9;" parent="1" source="rXP4-r2rK4ObflbEY1pi-2" target="rXP4-r2rK4ObflbEY1pi-8" edge="1">
          <mxGeometry relative="1" as="geometry">
            <Array as="points">
              <mxPoint x="84" y="104" />
              <mxPoint x="104" y="104" />
            </Array>
          </mxGeometry>
        </mxCell>
        <mxCell id="rXP4-r2rK4ObflbEY1pi-2" value="Social persona" style="text;html=1;align=center;verticalAlign=middle;resizable=0;points=[];autosize=1;strokeColor=none;fillColor=none;opacity=90;fontSize=11;fontStyle=1" parent="1" vertex="1">
          <mxGeometry x="34" y="64" width="100" height="30" as="geometry" />
        </mxCell>
        <mxCell id="rXP4-r2rK4ObflbEY1pi-28" style="edgeStyle=orthogonalEdgeStyle;rounded=1;orthogonalLoop=1;jettySize=auto;html=1;endArrow=none;endFill=0;opacity=90;fontSize=9;" parent="1" source="rXP4-r2rK4ObflbEY1pi-5" target="rXP4-r2rK4ObflbEY1pi-9" edge="1">
          <mxGeometry relative="1" as="geometry">
            <Array as="points">
              <mxPoint x="379" y="104" />
              <mxPoint x="154" y="104" />
            </Array>
          </mxGeometry>
        </mxCell>
        <mxCell id="rXP4-r2rK4ObflbEY1pi-29" style="edgeStyle=orthogonalEdgeStyle;rounded=1;orthogonalLoop=1;jettySize=auto;html=1;endArrow=none;endFill=0;opacity=90;fontSize=9;" parent="1" source="rXP4-r2rK4ObflbEY1pi-5" target="rXP4-r2rK4ObflbEY1pi-10" edge="1">
          <mxGeometry relative="1" as="geometry">
            <Array as="points">
              <mxPoint x="379" y="104" />
              <mxPoint x="199" y="104" />
            </Array>
          </mxGeometry>
        </mxCell>
        <mxCell id="rXP4-r2rK4ObflbEY1pi-30" style="edgeStyle=orthogonalEdgeStyle;rounded=1;orthogonalLoop=1;jettySize=auto;html=1;endArrow=none;endFill=0;opacity=90;fontSize=9;" parent="1" source="rXP4-r2rK4ObflbEY1pi-5" target="rXP4-r2rK4ObflbEY1pi-11" edge="1">
          <mxGeometry relative="1" as="geometry">
            <Array as="points">
              <mxPoint x="379" y="104" />
              <mxPoint x="234" y="104" />
            </Array>
          </mxGeometry>
        </mxCell>
        <mxCell id="rXP4-r2rK4ObflbEY1pi-31" style="edgeStyle=orthogonalEdgeStyle;rounded=1;orthogonalLoop=1;jettySize=auto;html=1;endArrow=none;endFill=0;opacity=90;fontSize=9;" parent="1" source="rXP4-r2rK4ObflbEY1pi-5" target="rXP4-r2rK4ObflbEY1pi-12" edge="1">
          <mxGeometry relative="1" as="geometry">
            <Array as="points">
              <mxPoint x="379" y="104" />
              <mxPoint x="279" y="104" />
            </Array>
          </mxGeometry>
        </mxCell>
        <mxCell id="rXP4-r2rK4ObflbEY1pi-32" style="edgeStyle=orthogonalEdgeStyle;rounded=1;orthogonalLoop=1;jettySize=auto;html=1;endArrow=none;endFill=0;opacity=90;fontSize=9;" parent="1" source="rXP4-r2rK4ObflbEY1pi-5" target="rXP4-r2rK4ObflbEY1pi-13" edge="1">
          <mxGeometry relative="1" as="geometry">
            <Array as="points">
              <mxPoint x="379" y="104" />
              <mxPoint x="329" y="104" />
            </Array>
          </mxGeometry>
        </mxCell>
        <mxCell id="rXP4-r2rK4ObflbEY1pi-33" style="edgeStyle=orthogonalEdgeStyle;rounded=1;orthogonalLoop=1;jettySize=auto;html=1;endArrow=none;endFill=0;opacity=90;fontSize=9;" parent="1" source="rXP4-r2rK4ObflbEY1pi-5" target="rXP4-r2rK4ObflbEY1pi-14" edge="1">
          <mxGeometry relative="1" as="geometry" />
        </mxCell>
        <mxCell id="rXP4-r2rK4ObflbEY1pi-34" style="edgeStyle=orthogonalEdgeStyle;rounded=1;orthogonalLoop=1;jettySize=auto;html=1;endArrow=none;endFill=0;opacity=90;fontSize=9;" parent="1" source="rXP4-r2rK4ObflbEY1pi-5" target="rXP4-r2rK4ObflbEY1pi-15" edge="1">
          <mxGeometry relative="1" as="geometry">
            <Array as="points">
              <mxPoint x="379" y="104" />
              <mxPoint x="413" y="104" />
            </Array>
          </mxGeometry>
        </mxCell>
        <mxCell id="rXP4-r2rK4ObflbEY1pi-5" value="Demographics" style="text;html=1;align=center;verticalAlign=middle;resizable=0;points=[];autosize=1;strokeColor=none;fillColor=none;opacity=90;fontSize=11;fontStyle=1" parent="1" vertex="1">
          <mxGeometry x="329" y="64" width="100" height="30" as="geometry" />
        </mxCell>
        <mxCell id="rXP4-r2rK4ObflbEY1pi-35" style="edgeStyle=orthogonalEdgeStyle;rounded=1;orthogonalLoop=1;jettySize=auto;html=1;endArrow=none;endFill=0;opacity=90;fontSize=9;" parent="1" source="rXP4-r2rK4ObflbEY1pi-6" target="rXP4-r2rK4ObflbEY1pi-16" edge="1">
          <mxGeometry relative="1" as="geometry">
            <Array as="points">
              <mxPoint x="619" y="104" />
              <mxPoint x="479" y="104" />
            </Array>
          </mxGeometry>
        </mxCell>
        <mxCell id="rXP4-r2rK4ObflbEY1pi-36" style="edgeStyle=orthogonalEdgeStyle;rounded=1;orthogonalLoop=1;jettySize=auto;html=1;endArrow=none;endFill=0;opacity=90;fontSize=9;" parent="1" source="rXP4-r2rK4ObflbEY1pi-6" target="rXP4-r2rK4ObflbEY1pi-17" edge="1">
          <mxGeometry relative="1" as="geometry">
            <Array as="points">
              <mxPoint x="619" y="104" />
              <mxPoint x="519" y="104" />
            </Array>
          </mxGeometry>
        </mxCell>
        <mxCell id="rXP4-r2rK4ObflbEY1pi-37" style="edgeStyle=orthogonalEdgeStyle;rounded=1;orthogonalLoop=1;jettySize=auto;html=1;endArrow=none;endFill=0;opacity=90;fontSize=9;" parent="1" source="rXP4-r2rK4ObflbEY1pi-6" target="rXP4-r2rK4ObflbEY1pi-18" edge="1">
          <mxGeometry relative="1" as="geometry">
            <Array as="points">
              <mxPoint x="619" y="104" />
              <mxPoint x="569" y="104" />
            </Array>
          </mxGeometry>
        </mxCell>
        <mxCell id="rXP4-r2rK4ObflbEY1pi-38" style="edgeStyle=orthogonalEdgeStyle;rounded=1;orthogonalLoop=1;jettySize=auto;html=1;endArrow=none;endFill=0;opacity=90;fontSize=9;" parent="1" source="rXP4-r2rK4ObflbEY1pi-6" target="rXP4-r2rK4ObflbEY1pi-19" edge="1">
          <mxGeometry relative="1" as="geometry">
            <Array as="points">
              <mxPoint x="619" y="94" />
              <mxPoint x="619" y="94" />
            </Array>
          </mxGeometry>
        </mxCell>
        <mxCell id="rXP4-r2rK4ObflbEY1pi-39" style="edgeStyle=orthogonalEdgeStyle;rounded=1;orthogonalLoop=1;jettySize=auto;html=1;endArrow=none;endFill=0;opacity=90;fontSize=9;" parent="1" source="rXP4-r2rK4ObflbEY1pi-6" target="rXP4-r2rK4ObflbEY1pi-20" edge="1">
          <mxGeometry relative="1" as="geometry">
            <Array as="points">
              <mxPoint x="619" y="104" />
              <mxPoint x="669" y="104" />
            </Array>
          </mxGeometry>
        </mxCell>
        <mxCell id="rXP4-r2rK4ObflbEY1pi-40" style="edgeStyle=orthogonalEdgeStyle;rounded=1;orthogonalLoop=1;jettySize=auto;html=1;endArrow=none;endFill=0;opacity=90;fontSize=9;" parent="1" source="rXP4-r2rK4ObflbEY1pi-6" target="rXP4-r2rK4ObflbEY1pi-21" edge="1">
          <mxGeometry relative="1" as="geometry">
            <Array as="points">
              <mxPoint x="619" y="104" />
              <mxPoint x="719" y="104" />
            </Array>
          </mxGeometry>
        </mxCell>
        <mxCell id="rXP4-r2rK4ObflbEY1pi-6" value="Individual persona" style="text;html=1;align=center;verticalAlign=middle;resizable=0;points=[];autosize=1;strokeColor=none;fillColor=none;opacity=90;fontSize=11;fontStyle=1" parent="1" vertex="1">
          <mxGeometry x="559" y="64" width="120" height="30" as="geometry" />
        </mxCell>
        <mxCell id="rXP4-r2rK4ObflbEY1pi-7" value="Social&lt;br style=&quot;font-size: 9px;&quot;&gt;stratification" style="text;html=1;align=center;verticalAlign=middle;resizable=0;points=[];autosize=1;strokeColor=none;fillColor=none;opacity=90;fontSize=9;" parent="1" vertex="1">
          <mxGeometry x="29" y="109" width="70" height="40" as="geometry" />
        </mxCell>
        <mxCell id="rXP4-r2rK4ObflbEY1pi-8" value="Social&lt;br style=&quot;font-size: 9px;&quot;&gt;relation" style="text;html=1;align=center;verticalAlign=middle;resizable=0;points=[];autosize=1;strokeColor=none;fillColor=none;opacity=90;fontSize=9;" parent="1" vertex="1">
          <mxGeometry x="90" y="109" width="50" height="40" as="geometry" />
        </mxCell>
        <mxCell id="rXP4-r2rK4ObflbEY1pi-9" value="Gender" style="text;html=1;align=center;verticalAlign=middle;resizable=0;points=[];autosize=1;strokeColor=none;fillColor=none;opacity=90;fontSize=9;" parent="1" vertex="1">
          <mxGeometry x="129" y="119" width="50" height="20" as="geometry" />
        </mxCell>
        <mxCell id="rXP4-r2rK4ObflbEY1pi-10" value="Age" style="text;html=1;align=center;verticalAlign=middle;resizable=0;points=[];autosize=1;strokeColor=none;fillColor=none;opacity=90;fontSize=9;" parent="1" vertex="1">
          <mxGeometry x="174" y="119" width="40" height="20" as="geometry" />
        </mxCell>
        <mxCell id="rXP4-r2rK4ObflbEY1pi-11" value="Ethnicity" style="text;html=1;align=center;verticalAlign=middle;resizable=0;points=[];autosize=1;strokeColor=none;fillColor=none;opacity=90;fontSize=9;" parent="1" vertex="1">
          <mxGeometry x="204" y="119" width="60" height="20" as="geometry" />
        </mxCell>
        <mxCell id="rXP4-r2rK4ObflbEY1pi-12" value="Occupation" style="text;html=1;align=center;verticalAlign=middle;resizable=0;points=[];autosize=1;strokeColor=none;fillColor=none;opacity=90;fontSize=9;" parent="1" vertex="1">
          <mxGeometry x="244" y="119" width="70" height="20" as="geometry" />
        </mxCell>
        <mxCell id="rXP4-r2rK4ObflbEY1pi-13" value="Birth place" style="text;html=1;align=center;verticalAlign=middle;resizable=0;points=[];autosize=1;strokeColor=none;fillColor=none;opacity=90;fontSize=9;" parent="1" vertex="1">
          <mxGeometry x="294" y="119" width="70" height="20" as="geometry" />
        </mxCell>
        <mxCell id="rXP4-r2rK4ObflbEY1pi-14" value="Nationality" style="text;html=1;align=center;verticalAlign=middle;resizable=0;points=[];autosize=1;strokeColor=none;fillColor=none;opacity=90;fontSize=9;" parent="1" vertex="1">
          <mxGeometry x="344" y="119" width="70" height="20" as="geometry" />
        </mxCell>
        <mxCell id="rXP4-r2rK4ObflbEY1pi-15" value="..." style="text;html=1;align=center;verticalAlign=middle;resizable=0;points=[];autosize=1;strokeColor=none;fillColor=none;opacity=90;fontSize=9;" parent="1" vertex="1">
          <mxGeometry x="398" y="119" width="30" height="20" as="geometry" />
        </mxCell>
        <mxCell id="rXP4-r2rK4ObflbEY1pi-16" value="Preference" style="text;html=1;align=center;verticalAlign=middle;resizable=0;points=[];autosize=1;strokeColor=none;fillColor=none;opacity=90;fontSize=9;" parent="1" vertex="1">
          <mxGeometry x="434" y="119" width="70" height="20" as="geometry" />
        </mxCell>
        <mxCell id="rXP4-r2rK4ObflbEY1pi-17" value="Experiences" style="text;html=1;align=center;verticalAlign=middle;resizable=0;points=[];autosize=1;strokeColor=none;fillColor=none;opacity=90;fontSize=9;" parent="1" vertex="1">
          <mxGeometry x="484" y="119" width="70" height="20" as="geometry" />
        </mxCell>
        <mxCell id="rXP4-r2rK4ObflbEY1pi-18" value="Habit" style="text;html=1;align=center;verticalAlign=middle;resizable=0;points=[];autosize=1;strokeColor=none;fillColor=none;opacity=90;fontSize=9;" parent="1" vertex="1">
          <mxGeometry x="549" y="119" width="40" height="20" as="geometry" />
        </mxCell>
        <mxCell id="rXP4-r2rK4ObflbEY1pi-19" value="Competence" style="text;html=1;align=center;verticalAlign=middle;resizable=0;points=[];autosize=1;strokeColor=none;fillColor=none;opacity=90;fontSize=9;" parent="1" vertex="1">
          <mxGeometry x="584" y="119" width="70" height="20" as="geometry" />
        </mxCell>
        <mxCell id="rXP4-r2rK4ObflbEY1pi-52" style="edgeStyle=orthogonalEdgeStyle;rounded=1;orthogonalLoop=1;jettySize=auto;html=1;endArrow=none;endFill=0;opacity=90;fontSize=9;" parent="1" source="rXP4-r2rK4ObflbEY1pi-20" target="rXP4-r2rK4ObflbEY1pi-44" edge="1">
          <mxGeometry relative="1" as="geometry">
            <Array as="points">
              <mxPoint x="669" y="150" />
              <mxPoint x="249" y="150" />
            </Array>
          </mxGeometry>
        </mxCell>
        <mxCell id="rXP4-r2rK4ObflbEY1pi-20" value="Personality" style="text;html=1;align=center;verticalAlign=middle;resizable=0;points=[];autosize=1;strokeColor=none;fillColor=none;opacity=90;fontSize=9;" parent="1" vertex="1">
          <mxGeometry x="634" y="119" width="70" height="20" as="geometry" />
        </mxCell>
        <mxCell id="rXP4-r2rK4ObflbEY1pi-53" style="edgeStyle=orthogonalEdgeStyle;rounded=1;orthogonalLoop=1;jettySize=auto;html=1;endArrow=none;endFill=0;opacity=90;fontSize=9;" parent="1" source="rXP4-r2rK4ObflbEY1pi-21" target="rXP4-r2rK4ObflbEY1pi-45" edge="1">
          <mxGeometry relative="1" as="geometry">
            <Array as="points">
              <mxPoint x="719" y="160" />
              <mxPoint x="579" y="160" />
            </Array>
          </mxGeometry>
        </mxCell>
        <mxCell id="rXP4-r2rK4ObflbEY1pi-21" value="Moral&lt;br style=&quot;font-size: 9px;&quot;&gt;orientation" style="text;html=1;align=center;verticalAlign=middle;resizable=0;points=[];autosize=1;strokeColor=none;fillColor=none;opacity=90;fontSize=9;" parent="1" vertex="1">
          <mxGeometry x="684" y="114" width="70" height="40" as="geometry" />
        </mxCell>
        <mxCell id="rXP4-r2rK4ObflbEY1pi-54" style="edgeStyle=orthogonalEdgeStyle;rounded=1;orthogonalLoop=1;jettySize=auto;html=1;endArrow=none;endFill=0;opacity=90;fontSize=9;" parent="1" source="rXP4-r2rK4ObflbEY1pi-44" target="rXP4-r2rK4ObflbEY1pi-46" edge="1">
          <mxGeometry relative="1" as="geometry">
            <Array as="points">
              <mxPoint x="249" y="194" />
              <mxPoint x="79" y="194" />
            </Array>
          </mxGeometry>
        </mxCell>
        <mxCell id="rXP4-r2rK4ObflbEY1pi-55" style="edgeStyle=orthogonalEdgeStyle;rounded=1;orthogonalLoop=1;jettySize=auto;html=1;endArrow=none;endFill=0;opacity=90;fontSize=9;" parent="1" source="rXP4-r2rK4ObflbEY1pi-44" target="rXP4-r2rK4ObflbEY1pi-47" edge="1">
          <mxGeometry relative="1" as="geometry">
            <Array as="points">
              <mxPoint x="249" y="194" />
              <mxPoint x="154" y="194" />
            </Array>
          </mxGeometry>
        </mxCell>
        <mxCell id="rXP4-r2rK4ObflbEY1pi-56" style="edgeStyle=orthogonalEdgeStyle;rounded=1;orthogonalLoop=1;jettySize=auto;html=1;endArrow=none;endFill=0;opacity=90;fontSize=9;" parent="1" source="rXP4-r2rK4ObflbEY1pi-44" target="rXP4-r2rK4ObflbEY1pi-48" edge="1">
          <mxGeometry relative="1" as="geometry" />
        </mxCell>
        <mxCell id="rXP4-r2rK4ObflbEY1pi-57" style="edgeStyle=orthogonalEdgeStyle;rounded=1;orthogonalLoop=1;jettySize=auto;html=1;endArrow=none;endFill=0;opacity=90;fontSize=9;" parent="1" source="rXP4-r2rK4ObflbEY1pi-44" target="rXP4-r2rK4ObflbEY1pi-49" edge="1">
          <mxGeometry relative="1" as="geometry">
            <Array as="points">
              <mxPoint x="249" y="194" />
              <mxPoint x="319" y="194" />
            </Array>
          </mxGeometry>
        </mxCell>
        <mxCell id="rXP4-r2rK4ObflbEY1pi-58" style="edgeStyle=orthogonalEdgeStyle;rounded=1;orthogonalLoop=1;jettySize=auto;html=1;endArrow=none;endFill=0;opacity=90;fontSize=9;" parent="1" source="rXP4-r2rK4ObflbEY1pi-44" target="rXP4-r2rK4ObflbEY1pi-50" edge="1">
          <mxGeometry relative="1" as="geometry">
            <Array as="points">
              <mxPoint x="249" y="194" />
              <mxPoint x="389" y="194" />
            </Array>
          </mxGeometry>
        </mxCell>
        <mxCell id="rXP4-r2rK4ObflbEY1pi-44" value="Personality" style="text;html=1;align=center;verticalAlign=middle;resizable=0;points=[];autosize=1;strokeColor=none;fillColor=none;opacity=90;fontSize=9;fontStyle=1" parent="1" vertex="1">
          <mxGeometry x="214" y="164" width="70" height="20" as="geometry" />
        </mxCell>
        <mxCell id="rXP4-r2rK4ObflbEY1pi-63" style="edgeStyle=orthogonalEdgeStyle;rounded=1;orthogonalLoop=1;jettySize=auto;html=1;endArrow=none;endFill=0;opacity=90;fontSize=9;" parent="1" source="rXP4-r2rK4ObflbEY1pi-45" target="rXP4-r2rK4ObflbEY1pi-59" edge="1">
          <mxGeometry relative="1" as="geometry">
            <Array as="points">
              <mxPoint x="579" y="204" />
              <mxPoint x="469" y="204" />
            </Array>
          </mxGeometry>
        </mxCell>
        <mxCell id="rXP4-r2rK4ObflbEY1pi-66" style="edgeStyle=orthogonalEdgeStyle;rounded=1;orthogonalLoop=1;jettySize=auto;html=1;endArrow=none;endFill=0;opacity=90;fontSize=9;" parent="1" source="rXP4-r2rK4ObflbEY1pi-45" target="rXP4-r2rK4ObflbEY1pi-62" edge="1">
          <mxGeometry relative="1" as="geometry">
            <Array as="points">
              <mxPoint x="579" y="204" />
              <mxPoint x="669" y="204" />
            </Array>
          </mxGeometry>
        </mxCell>
        <mxCell id="rXP4-r2rK4ObflbEY1pi-68" style="edgeStyle=orthogonalEdgeStyle;rounded=1;orthogonalLoop=1;jettySize=auto;html=1;endArrow=none;endFill=0;opacity=90;fontSize=9;" parent="1" source="rXP4-r2rK4ObflbEY1pi-45" target="rXP4-r2rK4ObflbEY1pi-60" edge="1">
          <mxGeometry relative="1" as="geometry">
            <Array as="points">
              <mxPoint x="579" y="204" />
              <mxPoint x="544" y="204" />
            </Array>
          </mxGeometry>
        </mxCell>
        <mxCell id="rXP4-r2rK4ObflbEY1pi-69" style="edgeStyle=orthogonalEdgeStyle;rounded=1;orthogonalLoop=1;jettySize=auto;html=1;endArrow=none;endFill=0;opacity=90;fontSize=9;" parent="1" source="rXP4-r2rK4ObflbEY1pi-45" target="rXP4-r2rK4ObflbEY1pi-61" edge="1">
          <mxGeometry relative="1" as="geometry">
            <Array as="points">
              <mxPoint x="579" y="204" />
              <mxPoint x="609" y="204" />
            </Array>
          </mxGeometry>
        </mxCell>
        <mxCell id="rXP4-r2rK4ObflbEY1pi-45" value="Moral orientation" style="text;html=1;align=center;verticalAlign=middle;resizable=0;points=[];autosize=1;strokeColor=none;fillColor=none;opacity=90;fontSize=9;fontStyle=1" parent="1" vertex="1">
          <mxGeometry x="525" y="164" width="100" height="20" as="geometry" />
        </mxCell>
        <mxCell id="rXP4-r2rK4ObflbEY1pi-46" value="Openness" style="text;html=1;align=center;verticalAlign=middle;resizable=0;points=[];autosize=1;strokeColor=none;fillColor=none;opacity=90;fontSize=9;" parent="1" vertex="1">
          <mxGeometry x="49" y="212" width="60" height="20" as="geometry" />
        </mxCell>
        <mxCell id="rXP4-r2rK4ObflbEY1pi-47" value="Conscientiousness" style="text;html=1;align=center;verticalAlign=middle;resizable=0;points=[];autosize=1;strokeColor=none;fillColor=none;opacity=90;fontSize=9;" parent="1" vertex="1">
          <mxGeometry x="104" y="212" width="100" height="20" as="geometry" />
        </mxCell>
        <mxCell id="rXP4-r2rK4ObflbEY1pi-48" value="Agreeableness" style="text;html=1;align=center;verticalAlign=middle;resizable=0;points=[];autosize=1;strokeColor=none;fillColor=none;opacity=90;fontSize=9;" parent="1" vertex="1">
          <mxGeometry x="209" y="212" width="80" height="20" as="geometry" />
        </mxCell>
        <mxCell id="rXP4-r2rK4ObflbEY1pi-49" value="Extraversion" style="text;html=1;align=center;verticalAlign=middle;resizable=0;points=[];autosize=1;strokeColor=none;fillColor=none;opacity=90;fontSize=9;" parent="1" vertex="1">
          <mxGeometry x="284" y="212" width="70" height="20" as="geometry" />
        </mxCell>
        <mxCell id="rXP4-r2rK4ObflbEY1pi-50" value="Neurotisism" style="text;html=1;align=center;verticalAlign=middle;resizable=0;points=[];autosize=1;strokeColor=none;fillColor=none;opacity=90;fontSize=9;" parent="1" vertex="1">
          <mxGeometry x="354" y="212" width="70" height="20" as="geometry" />
        </mxCell>
        <mxCell id="rXP4-r2rK4ObflbEY1pi-59" value="Social&lt;br style=&quot;font-size: 9px;&quot;&gt;morality" style="text;html=1;align=center;verticalAlign=middle;resizable=0;points=[];autosize=1;strokeColor=none;fillColor=none;opacity=90;fontSize=9;" parent="1" vertex="1">
          <mxGeometry x="439" y="207" width="60" height="40" as="geometry" />
        </mxCell>
        <mxCell id="rXP4-r2rK4ObflbEY1pi-60" value="Family&lt;br style=&quot;font-size: 9px;&quot;&gt;morality" style="text;html=1;align=center;verticalAlign=middle;resizable=0;points=[];autosize=1;strokeColor=none;fillColor=none;opacity=90;fontSize=9;" parent="1" vertex="1">
          <mxGeometry x="504" y="207" width="60" height="40" as="geometry" />
        </mxCell>
        <mxCell id="rXP4-r2rK4ObflbEY1pi-61" value="Occupational&lt;br style=&quot;font-size: 9px;&quot;&gt;morality" style="text;html=1;align=center;verticalAlign=middle;resizable=0;points=[];autosize=1;strokeColor=none;fillColor=none;opacity=90;fontSize=9;" parent="1" vertex="1">
          <mxGeometry x="569" y="207" width="80" height="40" as="geometry" />
        </mxCell>
        <mxCell id="rXP4-r2rK4ObflbEY1pi-62" value="Individual&lt;br style=&quot;font-size: 9px;&quot;&gt;morality" style="text;html=1;align=center;verticalAlign=middle;resizable=0;points=[];autosize=1;strokeColor=none;fillColor=none;opacity=90;fontSize=9;" parent="1" vertex="1">
          <mxGeometry x="639" y="202" width="60" height="40" as="geometry" />
        </mxCell>
        <mxCell id="rXP4-r2rK4ObflbEY1pi-70" value="The forth layer: natural language representation..." style="text;html=1;align=center;verticalAlign=middle;resizable=0;points=[];autosize=1;strokeColor=none;fillColor=none;opacity=90;fontSize=9;" parent="1" vertex="1">
          <mxGeometry x="59" y="251" width="220" height="20" as="geometry" />
        </mxCell>
        <mxCell id="rXP4-r2rK4ObflbEY1pi-71" value="The forth layer: natural language representation" style="text;html=1;align=center;verticalAlign=middle;resizable=0;points=[];autosize=1;strokeColor=none;fillColor=none;opacity=90;fontSize=9;" parent="1" vertex="1">
          <mxGeometry x="499" y="251" width="210" height="20" as="geometry" />
        </mxCell>
        <mxCell id="rXP4-r2rK4ObflbEY1pi-72" value="&lt;hr style=&quot;font-size: 9px;&quot;&gt;" style="edgeStyle=none;orthogonalLoop=1;jettySize=auto;html=1;rounded=0;shape=link;opacity=90;fontSize=9;" parent="1" edge="1">
          <mxGeometry width="100" relative="1" as="geometry">
            <mxPoint x="39" y="276" as="sourcePoint" />
            <mxPoint x="789" y="276" as="targetPoint" />
            <Array as="points" />
          </mxGeometry>
        </mxCell>
      </root>
    </mxGraphModel>
  </diagram>
</mxfile>
